# File created by Blade
# Date/Time:  Wed Apr 08 14:47:28 2015
#---------------------------------------------------------
:version 1.10
:name HOM
:units
  mass 1.0
  length 1.000000
  angle deg
:documentation
     Acclaim Skeleton File
:root
   axis xyz
   order TX TY TZ RX RY RZ
   position 0.000000 0.000000 0.000000
   orientation 0 0 0
:bonedata
   begin
      id 1
      name Spine_dum
      direction 0.000000 1.000000 0.000000
      length 4.885285
      axis 0.0 0.0 0.0 xyz
   end
   begin
      id 2
      name LeftUpLeg_dum
      direction 1.000000 0.000000 0.000000
      length 2.672193
      axis 0.0 0.0 0.0 xyz
   end
   begin
      id 3
      name RightUpLeg_dum
      direction -1.000000 0.000000 0.000000
      length 2.672193
      axis 0.0 0.0 0.0 xyz
   end
   begin
      id 4
      name Spine
      direction 0.000000 1.000000 0.000000
      length 0.000000
      axis 0.0 0.0 0.0 xyz
      dof rx ry rz
   end
   begin
      id 5
      name Spine_dum1
      direction 0.000000 1.000000 0.000000
      length 16.494159
      axis 0.0 0.0 0.0 xyz
   end
   begin
      id 6
      name Spine_dum2
      direction 0.000000 1.000000 0.000000
      length 10.663448
      axis 0.0 0.0 0.0 xyz
   end
   begin
      id 7
      name Spine_dum3
      direction 0.000000 1.000000 0.000000
      length 10.663448
      axis 0.0 0.0 0.0 xyz
   end
   begin
      id 8
      name Head
      direction 0.000000 1.000000 0.000000
      length 4.527550
      axis 0.0 0.0 0.0 xyz
      dof rx ry rz
   end
   begin
      id 9
      name LeftShoulder
      direction 1.000000 0.000000 0.000000
      length 7.531907
      axis 0.0 0.0 -90.0 xyz
      dof rx ry rz
   end
   begin
      id 10
      name LeftArm
      direction 1.000000 0.000000 0.000000
      length 10.229199
      axis 0.0 0.0 -90.0 xyz
      dof rx ry rz
   end
   begin
      id 11
      name LeftForeArm
      direction 1.000000 0.000000 0.000000
      length 8.673495
      axis 0.0 0.0 -90.0 xyz
      dof ry rz rx
   end
   begin
      id 12
      name LeftHand
      direction 0.000000 0.000000 0.000000
      length 0.000000
      axis 0.0 0.0 -90.0 xyz
      dof rx ry rz
   end
   begin
      id 13
      name LeftHand_dum1
      direction 0.000000 0.000000 0.000000
      length 0.000000
      axis 0.0 0.0 -90.0 xyz
   end
   begin
      id 14
      name LeftHand_dum2
      direction 1.000000 0.000000 0.000000
      length 3.937000
      axis 0.0 0.0 -90.0 xyz
   end
   begin
      id 15
      name LeftHandThumb1
      direction 0.000000 0.000000 1.000000
      length 3.937000
      axis 0.0 0.0 -90.0 xyz
      dof rx rz ry
   end
   begin
      id 16
      name RightShoulder
      direction -1.000000 0.000000 0.000000
      length 7.531907
      axis 0.0 0.0 90.0 xyz
      dof rx ry rz
   end
   begin
      id 17
      name RightArm
      direction -1.000000 0.000000 0.000000
      length 10.229199
      axis 0.0 0.0 90.0 xyz
      dof rx ry rz
   end
   begin
      id 18
      name RightForeArm
      direction -1.000000 0.000000 0.000000
      length 8.673495
      axis 0.0 0.0 90.0 xyz
      dof ry rz rx
   end
   begin
      id 19
      name RightHand
      direction 0.000000 0.000000 0.000000
      length 0.000000
      axis 0.0 0.0 90.0 xyz
      dof rx ry rz
   end
   begin
      id 20
      name RightHand_dum1
      direction 0.000000 0.000000 0.000000
      length 0.000000
      axis 0.0 0.0 90.0 xyz
   end
   begin
      id 21
      name RightHand_dum2
      direction -1.000000 0.000000 0.000000
      length 3.937000
      axis 0.0 0.0 90.0 xyz
   end
   begin
      id 22
      name RightHandThumb1
      direction 0.000000 0.000000 1.000000
      length 3.937000
      axis 0.0 0.0 90.0 xyz
      dof rx rz ry
   end
   begin
      id 23
      name LeftUpLeg
      direction 0.000000 -1.000000 0.000000
      length 16.263388
      axis 0.0 0.0 0.0 xyz
      dof rx ry rz
   end
   begin
      id 24
      name LeftLeg
      direction 0.000000 -1.000000 0.000000
      length 14.328163
      axis 0.0 0.0 0.0 xyz
      dof rx ry rz
   end
   begin
      id 25
      name LeftFoot
      direction 0.000000 -0.258819 0.965926
      length 5.031290
      axis 15.0 0.0 0.0 xyz
      dof rx ry rz
   end
   begin
      id 26
      name LeftToeBase
      direction 0.000000 0.000000 1.000000
      length 2.952750
      axis 0.0 0.0 0.0 xyz
      dof rx ry rz
   end
   begin
      id 27
      name RightUpLeg
      direction 0.000000 -1.000000 0.000000
      length 16.263388
      axis 0.0 0.0 0.0 xyz
      dof rx ry rz
   end
   begin
      id 28
      name RightLeg
      direction 0.000000 -1.000000 0.000000
      length 14.328163
      axis 0.0 0.0 0.0 xyz
      dof rx ry rz
   end
   begin
      id 29
      name RightFoot
      direction 0.000000 -0.258819 0.965926
      length 5.031290
      axis 15.0 0.0 0.0 xyz
      dof rx ry rz
   end
   begin
      id 30
      name RightToeBase
      direction 0.000000 0.000000 1.000000
      length 2.952750
      axis 0.0 0.0 0.0 xyz
      dof rx ry rz
   end
:hierarchy
   begin
      root Spine_dum LeftUpLeg_dum RightUpLeg_dum
      Spine_dum Spine
      LeftUpLeg_dum LeftUpLeg
      RightUpLeg_dum RightUpLeg
      Spine Spine_dum1 Spine_dum2 Spine_dum3
      Spine_dum1 Head
      Spine_dum2 LeftShoulder
      Spine_dum3 RightShoulder
      LeftShoulder LeftArm
      LeftArm LeftForeArm
      LeftForeArm LeftHand
      LeftHand LeftHand_dum1 LeftHand_dum2
      LeftHand_dum1 LeftHandThumb1
      RightShoulder RightArm
      RightArm RightForeArm
      RightForeArm RightHand
      RightHand RightHand_dum1 RightHand_dum2
      RightHand_dum1 RightHandThumb1
      LeftUpLeg LeftLeg
      LeftLeg LeftFoot
      LeftFoot LeftToeBase
      RightUpLeg RightLeg
      RightLeg RightFoot
      RightFoot RightToeBase
   end

# File created by Blade
# Date/Time:  Wed Apr 08 14:47:20 2015
# Frame Rate: 120.000 fps
#------------------------------------------------------
:FULLY-SPECIFIED
:DEGREES
844
root 0.045400 31.913066 -14.795344 17.712984 -1.713382 -2.091994
Spine -10.372837 0.474128 -0.633095
Head 3.072376 -8.384144 2.872243
LeftShoulder -19.388723 48.937007 5.321588
LeftArm 57.347593 14.543067 -68.305994
LeftForeArm 9.824204 -0.000000 123.413887
LeftHand 7.647511 0.000000 -0.899099
LeftHandThumb1 -26.253704 0.000000 33.147579
RightShoulder -2.815255 -6.620214 -20.495462
RightArm 22.039035 -35.958597 78.528745
RightForeArm 2.648828 0.000000 117.461629
RightHand 13.690519 -0.000000 -9.933136
RightHandThumb1 -24.326973 -0.000000 -32.862282
LeftUpLeg -37.355787 -0.220044 3.394121
LeftLeg 16.645284 -0.000000 -0.000000
LeftFoot -3.410898 27.718681 -12.794357
LeftToeBase -8.305630 -0.000000 0.000000
RightUpLeg -1.606030 -3.710495 4.494038
RightLeg 6.051687 -0.000000 -0.000000
RightFoot -16.569932 -21.045072 14.454385
RightToeBase -9.324446 -0.000000 0.000000
845
root 0.000835 31.899776 -14.938770 17.842925 -1.820306 -2.155479
Spine -10.450919 0.383008 -0.510404
Head 3.115284 -8.112723 2.651288
LeftShoulder -19.484000 48.962506 5.221715
LeftArm 57.203744 14.640877 -68.305012
LeftForeArm 9.694683 -0.000000 123.464655
LeftHand 7.647462 0.000000 -0.766286
LeftHandThumb1 -26.253704 0.000000 33.147579
RightShoulder -2.839537 -6.717277 -20.542501
RightArm 22.007965 -35.999198 78.533028
RightForeArm 2.719544 -0.000000 117.546776
RightHand 13.634199 -0.000000 -10.016575
RightHandThumb1 -24.326973 -0.000000 -32.862282
LeftUpLeg -37.673959 0.098158 3.448002
LeftLeg 16.504009 -0.000000 -0.000000
LeftFoot -2.933921 27.559434 -12.855754
LeftToeBase -8.382537 -0.000000 0.000000
RightUpLeg -1.658637 -3.709117 4.562249
RightLeg 5.504133 -0.000000 -0.000000
RightFoot -16.553464 -20.575203 14.360473
RightToeBase -9.317830 -0.000000 0.000000
846
root -0.043666 31.887216 -15.083705 17.968972 -1.927363 -2.247005
Spine -10.501139 0.310827 -0.361670
Head 3.110957 -7.806621 2.440998
LeftShoulder -19.628891 49.003749 5.052502
LeftArm 57.132924 14.721500 -68.295447
LeftForeArm 9.627011 -0.000000 123.499302
LeftHand 7.722429 0.000000 -0.941060
LeftHandThumb1 -26.253704 0.000000 33.147579
RightShoulder -2.874145 -6.808875 -20.579950
RightArm 21.970863 -35.980870 78.542699
RightForeArm 2.601748 -0.000000 117.613624
RightHand 13.691057 -0.000000 -9.901499
RightHandThumb1 -24.326973 -0.000000 -32.862282
LeftUpLeg -38.004779 0.422682 3.526121
LeftLeg 16.395138 -0.000000 -0.000000
LeftFoot -2.460375 27.421771 -12.939969
LeftToeBase -8.458900 -0.000000 0.000000
RightUpLeg -1.728858 -3.697760 4.660411
RightLeg 4.999829 -0.000000 -0.000000
RightFoot -16.535425 -20.126129 14.243747
RightToeBase -9.214638 -0.000000 0.000000
847
root -0.090513 31.874438 -15.228621 18.118197 -2.024157 -2.348610
Spine -10.567365 0.236360 -0.203498
Head 3.065450 -7.539922 2.236528
LeftShoulder -19.627930 48.796535 5.059760
LeftArm 56.782499 14.876747 -68.375968
LeftForeArm 9.642506 -0.000000 123.542560
LeftHand 7.700039 0.000000 -0.925282
LeftHandThumb1 -26.253704 0.000000 33.147579
RightShoulder -2.888697 -6.812475 -20.644973
RightArm 21.792334 -35.996647 78.656327
RightForeArm 2.658747 -0.000000 117.713182
RightHand 13.586048 0.000000 -9.921905
RightHandThumb1 -24.326973 -0.000000 -32.862282
LeftUpLeg -38.338553 0.755946 3.610545
LeftLeg 16.235917 -0.000000 -0.000000
LeftFoot -1.972698 27.304758 -13.005235
LeftToeBase -8.569500 -0.000000 0.000000
RightUpLeg -1.829519 -3.631388 4.779424
RightLeg 4.490551 -0.000000 -0.000000
RightFoot -16.530633 -19.775153 14.172287
RightToeBase -9.179030 -0.000000 0.000000
848
root -0.132788 31.861683 -15.367198 18.251937 -2.125733 -2.433906
Spine -10.630731 0.208985 -0.079089
Head 3.041512 -7.325689 2.065362
LeftShoulder -19.718343 48.870101 4.930473
LeftArm 56.759447 14.944227 -68.362919
LeftForeArm 9.655544 -0.000000 123.559978
LeftHand 7.741838 -0.000000 -0.939011
LeftHandThumb1 -26.253704 0.000000 33.147579
RightShoulder -2.937704 -6.905852 -20.679455
RightArm 21.691219 -35.977618 78.725914
RightForeArm 2.671984 -0.000000 117.775704
RightHand 13.619263 -0.000000 -9.920052
RightHandThumb1 -24.326973 -0.000000 -32.862282
LeftUpLeg -38.647123 1.063557 3.692963
LeftLeg 16.089903 -0.000000 -0.000000
LeftFoot -1.523797 27.168240 -13.151810
LeftToeBase -8.687946 -0.000000 0.000000
RightUpLeg -1.920786 -3.542543 4.895555
RightLeg 4.003137 -0.000000 -0.000000
RightFoot -16.536393 -19.577403 14.047663
RightToeBase -9.118942 -0.000000 0.000000
849
root -0.174615 31.849135 -15.503995 18.368992 -2.236974 -2.525907
Spine -10.671825 0.176434 0.042074
Head 3.002635 -7.058145 1.920506
LeftShoulder -19.878961 48.948424 4.762857
LeftArm 56.777933 15.004323 -68.331634
LeftForeArm 9.849490 -0.000000 123.573132
LeftHand 7.610562 0.000000 -1.026616
LeftHandThumb1 -26.253704 0.000000 33.147579
RightShoulder -2.961896 -6.981729 -20.705015
RightArm 21.587197 -35.943729 78.783038
RightForeArm 2.646071 0.000000 117.826414
RightHand 13.647048 -0.000000 -10.005304
RightHandThumb1 -24.326973 -0.000000 -32.862282
LeftUpLeg -38.928271 1.383891 3.762981
LeftLeg 15.927372 -0.000000 -0.000000
LeftFoot -1.067432 27.071910 -13.234422
LeftToeBase -8.732580 -0.000000 0.000000
RightUpLeg -1.999644 -3.446288 5.005153
RightLeg 3.537253 -0.000000 -0.000000
RightFoot -16.583900 -19.283004 14.068540
RightToeBase -8.961566 -0.000000 0.000000
850
root -0.216603 31.836989 -15.641683 18.476659 -2.319284 -2.632263
Spine -10.680236 0.159312 0.179881
Head 2.905092 -6.858723 1.759067
LeftShoulder -19.957308 48.974748 4.660726
LeftArm 56.753667 15.079043 -68.333626
LeftForeArm 9.899147 0.000000 123.560833
LeftHand 7.638423 -0.000000 -1.047771
LeftHandThumb1 -26.253704 0.000000 33.147579
RightShoulder -2.996758 -7.038970 -20.738870
RightArm 21.449037 -35.882609 78.886100
RightForeArm 2.646209 -0.000000 117.861465
RightHand 13.652340 -0.000000 -10.031806
RightHandThumb1 -24.326973 -0.000000 -32.862282
LeftUpLeg -39.208963 1.675298 3.860101
LeftLeg 15.776557 -0.000000 -0.000000
LeftFoot -0.575129 26.967642 -13.251072
LeftToeBase -8.800378 -0.000000 0.000000
RightUpLeg -2.086832 -3.396538 5.140495
RightLeg 3.098246 -0.000000 -0.000000
RightFoot -16.607783 -19.003663 14.060419
RightToeBase -8.818711 -0.000000 0.000000
851
root -0.257577 31.824129 -15.775241 18.580527 -2.389007 -2.757857
Spine -10.695872 0.115175 0.349255
Head 2.832387 -6.654778 1.606705
LeftShoulder -20.033160 48.949095 4.576226
LeftArm 56.654451 15.127550 -68.407424
LeftForeArm 9.789412 -0.000000 123.545043
LeftHand 7.640078 -0.000000 -1.363434
LeftHandThumb1 -26.253704 0.000000 33.147579
RightShoulder -2.969939 -7.115577 -20.789557
RightArm 21.308704 -35.793190 78.997084
RightForeArm 2.716880 -0.000000 117.893039
RightHand 13.665139 -0.000000 -10.035541
RightHandThumb1 -24.326973 -0.000000 -32.862282
LeftUpLeg -39.523969 1.972628 3.963783
LeftLeg 15.718733 -0.000000 -0.000000
LeftFoot -0.108862 26.855710 -13.261886
LeftToeBase -8.816621 -0.000000 0.000000
RightUpLeg -2.157041 -3.317555 5.313370
RightLeg 2.639338 -0.000000 -0.000000
RightFoot -16.627640 -18.850442 14.031648
RightToeBase -8.678764 -0.000000 0.000000
852
root -0.300654 31.811402 -15.907265 18.684435 -2.430259 -2.892254
Spine -10.707569 0.109626 0.517120
Head 2.743602 -6.501367 1.471531
LeftShoulder -19.997201 48.891750 4.584417
LeftArm 56.541559 15.221026 -68.416698
LeftForeArm 9.929072 -0.000000 123.525162
LeftHand 7.705603 -0.000000 -1.271485
LeftHandThumb1 -26.253704 0.000000 33.147579
RightShoulder -3.010187 -7.202068 -20.827275
RightArm 21.176703 -35.711627 79.106999
RightForeArm 2.781502 0.000000 117.898137
RightHand 13.705627 -0.000000 -10.031058
RightHandThumb1 -24.326973 -0.000000 -32.862282
LeftUpLeg -39.796639 2.229364 4.099016
LeftLeg 15.571944 -0.000000 -0.000000
LeftFoot 0.402121 26.751508 -13.239903
LeftToeBase -8.856114 -0.000000 0.000000
RightUpLeg -2.216146 -3.283077 5.494037
RightLeg 2.174588 -0.000000 -0.000000
RightFoot -16.660976 -18.556268 14.127373
RightToeBase -8.444148 -0.000000 0.000000
853
root -0.339403 31.797820 -16.037320 18.756770 -2.473078 -3.005933
Spine -10.667925 0.121343 0.653606
Head 2.603001 -6.372986 1.376365
LeftShoulder -20.001444 48.890060 4.561820
LeftArm 56.530041 15.281919 -68.427681
LeftForeArm 9.774091 -0.000000 123.481498
LeftHand 7.735610 -0.000000 -1.221982
LeftHandThumb1 -26.253704 0.000000 33.147579
RightShoulder -3.035596 -7.248123 -20.866773
RightArm 20.981056 -35.603487 79.254503
RightForeArm 2.783594 0.000000 117.912514
RightHand 13.756941 -0.000000 -10.094207
RightHandThumb1 -24.326973 -0.000000 -32.862282
LeftUpLeg -40.065576 2.492150 4.190229
LeftLeg 15.486315 -0.000000 -0.000000
LeftFoot 0.900247 26.622781 -13.202386
LeftToeBase -8.926522 -0.000000 0.000000
RightUpLeg -2.289409 -3.172829 5.687885
RightLeg 1.775351 -0.000000 -0.000000
RightFoot -16.728738 -18.620155 14.072956
RightToeBase -8.295826 -0.000000 0.000000
854
root -0.375618 31.783060 -16.165944 18.807610 -2.491933 -3.087446
Spine -10.614584 0.090886 0.761842
Head 2.516443 -6.162144 1.234822
LeftShoulder -19.992582 48.886791 4.567460
LeftArm 56.510611 15.358953 -68.461616
LeftForeArm 9.793812 0.000000 123.411757
LeftHand 7.799043 -0.000000 -1.040330
LeftHandThumb1 -26.253704 0.000000 33.147579
RightShoulder -3.017230 -7.315280 -20.906852
RightArm 20.842039 -35.487608 79.351031
RightForeArm 2.874047 0.000000 117.925810
RightHand 13.710714 -0.000000 -10.159912
RightHandThumb1 -24.326973 -0.000000 -32.862282
LeftUpLeg -40.286916 2.698202 4.256825
LeftLeg 15.327804 -0.000000 -0.000000
LeftFoot 1.336669 26.581171 -13.306343
LeftToeBase -9.004914 -0.000000 0.000000
RightUpLeg -2.358649 -3.133292 5.848632
RightLeg 1.418142 -0.000000 -0.000000
RightFoot -16.845192 -18.593336 14.056110
RightToeBase -8.020590 -0.000000 0.000000
855
root -0.415826 31.767529 -16.288784 18.843958 -2.497398 -3.188977
Spine -10.545729 0.065938 0.877501
Head 2.403344 -6.080509 1.152288
LeftShoulder -20.006689 48.931944 4.550890
LeftArm 56.543369 15.384116 -68.448657
LeftForeArm 9.769562 -0.000000 123.368426
LeftHand 7.874809 -0.000000 -1.015030
LeftHandThumb1 -26.253704 0.000000 33.147579
RightShoulder -3.010438 -7.423861 -20.935958
RightArm 20.747355 -35.361105 79.449431
RightForeArm 2.909679 0.000000 117.913590
RightHand 13.740105 -0.000000 -10.263667
RightHandThumb1 -24.326973 -0.000000 -32.862282
LeftUpLeg -40.536149 2.960293 4.316668
LeftLeg 15.275872 -0.000000 -0.000000
LeftFoot 1.786595 26.441608 -13.276549
LeftToeBase -9.008813 -0.000000 0.000000
RightUpLeg -2.388503 -3.035978 6.037870
RightLeg 1.030098 -0.000000 -0.000000
RightFoot -16.952164 -18.625039 14.065312
RightToeBase -7.681364 -0.000000 0.000000
